<?xml version="1.0"?>
<svg id="Layer_1" data-name="Layer 1" xmlns="http://www.w3.org/2000/svg" viewBox="0 0 438.73 438.73">
  <defs></defs>
  <circle fill="#f4c430" cx="219.37" cy="219.37" r="219.37"></circle>
  <g>
    <path fill="#262626" d="M351.29,328.02c15.97,5.29,31.87,11.11,47.56,17.51-2.12,3.01-4.32,5.97-6.58,8.87-14.01-5.64-28.36-10.94-42.61-15.57-6.57-2.14-13.17-3.99-19.81-5.56-.14-.03-.28.05-.31.19,0,.04-.01.07,0,.11l1.92,12.7c.1.67.52,1.24,1.13,1.53,12.83,6.22,30.67,11.53,40.95,15.52,2.86,1.11,5.67,2.21,8.43,3.3-2.64,2.91-5.35,5.74-8.13,8.51-5.03-1.91-11.01-4.12-17.94-6.62-7.1-2.56-16.86-6.23-29.28-11.01-.19-.07-.4,0-.52.17-3.84,5.93-8.6,11.8-14.29,17.61-17.33,17.72-41.56,28.98-65.56,32.65-5.87.9-10.51,1.44-13.91,1.63-.31.02-.58.23-.67.53-.82,2.9-1.24,5.92-1.24,9.05,0,6.55,0,12.99-.01,19.32-3.4.17-6.83.26-10.27.27,0-5.63.02-11.16.03-16.57,0-3.77.24-7.9.71-12.39.02-.2-.12-.38-.32-.4,0,0,0,0-.01,0-20.3-1.7-39.2-7.83-56.71-18.38-13.55-8.17-25.19-19.5-34.91-34-.15-.21-.4-.32-.65-.27-5.63.98-11.05,2.3-16.98,3.05-17,2.13-35.32,4.77-53.05,8.47-2.87-3.11-5.66-6.3-8.35-9.58,10.76-2.48,21.64-4.64,32.31-5.96,12.62-1.58,28.32-3.54,41.66-6.23.23-.05.41-.23.44-.47l1.76-11.87c.02-.19-.11-.36-.29-.38-.03,0-.05,0-.08,0-17.23,1.52-36.51,2.77-53.92,6.07-9.93,1.88-19.01,3.79-27.22,5.72-1.32.31-2.61.67-3.89,1.09-2.02-2.84-3.98-5.72-5.87-8.66.65-.33,1.34-.64,2.08-.93,2.16-.83,3.72-1.37,4.68-1.6,17.78-4.43,35.2-7.55,52.25-9.33,16.79-1.75,27.94-2.87,33.47-3.36.25-.02.46-.22.5-.47,1.29-8.99,2.42-17.46,3.38-25.41.13-1.05-.21-3.56-1.01-7.53-.05-.23-.23-.41-.46-.43-9.07-1.09-15.7-5.69-19.89-13.8-.81-1.57-1.67-3.43-2.56-5.59-.11-.26-.4-.38-.65-.27-.05.02-.09.05-.13.08-4.8,4.05-9.41,8.41-13.81,13.1-4.08,4.34-8.6,8.56-12.28,11.31-12.12,9.04-25.7,13.2-40.75,12.48-.23-.01-.44.17-.45.4,0,.06,0,.12.03.17,1.29,3.46,2.17,6.8,2.63,10.03.67,4.63-1.37,8.13-4.15,11.59-1.68,2.08-3.37,4.12-5.06,6.11-5.85-9.47-11-19.42-15.38-29.77,1.05-1.14,2.05-2.16,2.98-3.06,3.95-3.79,5.66-5.85,10.76-5.26,3.38.38,6.83.64,10.35.77,17.83.65,31.75-7.34,43.84-20.17,4.79-5.09,9.28-9.57,14.67-14.02,3.49-2.88,7-5.83,10.53-8.86,1.47-1.26,2.36-2.74,2.66-4.45.48-2.76-1.15-5.29-3.91-5.55-8.62-.79-16.5,5.59-21.6,12.13-2.52,3.23-3.8,6.28-3.86,9.15-.03,1.69-.36,2.87-.97,3.55-1.9,2.09-5.89.82-6.15-2.04-.11-1.27-.13-2.62-.07-4.06.02-.41-.22-.8-.59-.96-1.38-.62-3-1.05-4.86-1.28-4.54-.56-9.13-.21-13.75,1.06-1.59.44-3.23-.49-3.67-2.08,0,0,0,0,0,0l-.05-.17c-.45-1.63.38-3.35,1.94-4.01,5.97-2.52,12.11-3.17,18.43-1.96.93.18,2.36.5,4.27.98.25.06.51-.04.65-.26,4.41-6.79,10.27-11.91,17.58-15.35.51-.24.98-.55,1.39-.93,7.65-6.87,14.67-13.33,21.05-19.39,4.26-4.04,8.21-8.21,11.84-12.51,2.43-2.85,5.66-7.63,4.8-11.69-.03-.13-.15-.21-.28-.18-.05.01-.1.04-.13.08-5.68,6.94-11.2,11.71-19.39,18.81-9.21,7.97-17.3,14.66-24.27,20.05-.23.18-.3.49-.16.75,1.45,2.66.31,5.88-2.96,5.59-.88-.08-1.48-.27-1.8-.58-2.53-2.44-6.24-4.76-11.13-6.98-6.62-3-12.33-5.11-17.13-6.34-.53-.13-1.08-.12-1.6.05-2.68.85-6.74,1.26-8.69-.95-.87-.98-1.1-2.1-.73-3.35.69-2.27,3.52-2.25,5.68-2.36.28-.01.56-.1.81-.25,1.71-1.02,2.75-1.67,3.13-1.95,8.74-6.6,16.27-12.22,22.58-16.88,3.61-2.66,10.69-8.77,8.96-13.81-.25-.73-.97-1.24-1.8-1.26-2-.05-4.01.38-6.02,1.29-17.33,7.88-33.3,17.28-47.91,28.2-6.39,4.78-13.22,10.84-18.13,15.89-4.89,5.02-8.9,10.1-12.93,15.74-.55-4.55-.96-9.14-1.22-13.77,9.99-12.09,22.05-22.56,35.14-30.91,6.26-3.99,13.45-8.28,21.55-12.87,7.03-3.98,13.26-7.21,18.67-9.67,5.06-2.3,9.65-3.42,14.9-2,.27.07.56,0,.77-.17,5.01-4.21,10.48-7.1,16.39-8.68.24-.06.38-.3.32-.55,0-.01,0-.02-.01-.03-2.54-7.18-3.42-13.25,1.32-19.33.16-.2.21-.47.14-.72-.67-2.3-1.59-6.22-2.74-11.76-1.34-6.38-1.13-12.23,2.04-17.88,1.83-3.26,4.04-6.15,6.63-8.66,3.87-3.75,8.37-7.84,13.48-12.27,5.08-4.4,11.15-11.14,18.23-20.23,7.16-9.19,15.94-17.49,26.9-22.42,14.36-6.45,29.26-7.72,44.71-3.81,11.84,3,18.4,4.8,26.71,6.51,15.04,3.08,34.65,1.9,42.88,18.39,2.29,4.6,4.14,10.39,6.87,15.82.12.24.32.44.57.56,4.86,2.34,7.3,3.91,8.92,8.87,4.94,15.09,10.54,29.75,16.81,43.99.43.97,1.02,2.66,1.79,5.07,1.59,5.03,2.85,8.32-.85,12.77-.4.48-.53,1.14-.34,1.73,4.67,14.72,6.98,30.27,6.94,46.64,0,.36.29.65.65.65.01,0,.03,0,.04,0,11.43-.67,18.91,4.4,22.43,15.22,4.48,13.78,1.86,31.37-3.54,44.39-3.79,9.15-12.08,17.41-22.53,17.87-.22.01-.41.18-.45.4-.54,3.05-.66,6.16-.38,9.32.64,7.18,1.42,14.64,2.34,22.38.03.26.21.47.46.54,7.96,2.42,15.91,4.34,23.15,6.74ZM342.23,257.67c2.67-9.77,3.39-21.62-.83-30.77-2.21-4.8-6-6.48-11.37-5.02-.34.09-.57.4-.57.75v8.37c0,.21.17.38.38.38.06,0,.12-.01.17-.04,2.6-1.34,7.09-3.79,8.89-.25.79,1.56.18,3.86-1.51,4.35-3.82,1.11-6.5,3.43-8.04,6.97-.09.19-.13.39-.14.6-.3,12.11-.99,23.82-2.08,35.14-.02.19.11.35.3.37.06,0,.12,0,.18-.03,9.11-3.95,11.96-11.12,14.61-20.83ZM319.86,346.64c.28-.57.39-1.2.31-1.82l-2.87-24.6c-.02-.1-.11-.16-.2-.15-.05,0-.1.04-.13.09-2.16,4.16-3.92,7.39-5.27,9.69-6.11,10.33-14.41,18.75-24.88,25.25-9.57,5.94-17.09,9.2-28.29,13.75-5.8,2.34-9.46,6.61-12.07,12.71-2.23,5.21-3.98,10.57-5.27,16.09-.04.16.06.32.22.36.03,0,.07,0,.11,0,16.81-2.33,32.26-7.95,46.36-16.86,13.3-8.41,25.01-20.39,31.98-34.51ZM317.38,264.74c1.26-22.06,1.61-42.32,1.05-60.78-.36-11.93-2.27-23.33-5.73-34.21-.06-.2-.28-.32-.48-.25-.05.01-.09.04-.13.07-2.86,2.32-6.14,4.63-9.83,6.92-9.66,5.99-20.03,11.32-31.09,16.01-7.2,3.05-16.55,5.97-22.74,8.25-5.64,2.07-11.42,3.82-17.34,5.25-10.42,2.51-19.34,4.54-26.78,6.1-.13.03-.21.15-.18.28.01.07.05.12.11.16,2.35,1.45,3.11,3.29,2.29,5.52-1.06,2.88-4.56,3.18-7.21,2.13-2.18-.86-4.45-1.72-6.37-2.08-11.3-2.13-20.47,1.99-29.51,8.39-2.29,1.62-5.93.8-6.79-2.03-.61-2.01.61-3.36,1.66-4.94.08-.11.05-.26-.06-.34-.05-.03-.1-.05-.15-.04l-20.06.43c-.15,0-.28.12-.28.27-.83,16.6-.46,33.39,1.1,50.36.75,8.21,1.15,14.96,2.44,21.46,1.75,8.8,4.18,16.81,7.29,24.05,12.49,29.04,43.48,44.5,74.09,46.73,23.62,1.72,47.05-6.53,65.4-21.17,23.54-18.79,27.74-49.2,29.29-76.52ZM313.84,152.74c0-.07,0-.13-.03-.19-6.43-15.13-12.4-30.94-17.9-47.42-.95-2.86-3.22-4.56-6.81-5.11-20-3.07-40.12-2.99-60.37.23-.33.05-.61.28-.73.6-2.82,7.75-6.08,14.06-12.85,19.12-3.24,2.42-5.95,4.07-8.13,4.96-2.27.93-3.7,1.83-4.32,2.71-2.21,3.16-2.66,6.21-1.62,10.09,2.47,9.14,5.08,17.95,7.84,26.44.06.18.26.28.44.23,33.86-10.24,68.96-15.1,104.04-11.3.22.02.42-.14.44-.36ZM305.4,162.29c.12-.09.15-.25.07-.37-.05-.07-.13-.11-.21-.11-31.2-2.16-61.24,2.39-91.58,11.47-19.3,5.77-39.29,15.92-56.71,26.41-4.5,2.72-8.82,5.91-12.94,9.58-.1.1-.11.26-.02.36.05.05.12.09.2.08,9.11-.39,18.68-1.08,28.72-2.07,8.18-.81,17.66-2.32,28.45-4.54,11.28-2.33,22.75-5.19,34.39-8.58,21.94-6.38,42.14-15.09,60.6-26.14,3.21-1.92,6.22-3.95,9.04-6.09ZM284.09,91.21c0-.07,0-.13-.02-.19-2.55-6.28-5.22-14.7-10.88-18.02-3.21-1.87-6.81-3.08-10.81-3.61-12.9-1.73-25.89-4.35-38.96-7.85-2.57-.69-5.63-1.39-9.19-2.1-7.04-1.42-13.44-2.19-19.57-1.02-3.71.71-7.59,1.66-11.63,2.85-6.91,2.04-12.96,5.59-18.15,10.64-6.19,6.03-10.54,11.72-16.25,18.58-7.15,8.59-18.18,17.55-26,25.31-4.15,4.1-6.84,9.63-5.78,15.64.59,3.34,1.28,6.37,2.07,9.08.09.3.41.48.71.39.07-.02.14-.05.19-.1,14.78-11.72,30.85-21.7,48.19-29.95,2.04-.97,3.86-1.66,5.47-2.05.29-.07.59.01.81.22,4.44,4.26,9.77,6.98,15.99,8.15.16.02.3-.09.32-.25.01-.11-.04-.22-.13-.28-5.98-3.43-7.02-9.47-5.96-15.92.02-.14-.08-.27-.22-.29-.06,0-.12,0-.17.03-2.25,1.35-4.41,1.21-6.52-.43-4.2-3.27-6.25-7.47-6.17-12.62.08-5.01,2.52-7.53,7.32-7.56.29,0,.52-.23.52-.52,0-.13-.05-.26-.14-.36-5.23-5.78,1.16-10.44,4.7-14.49.6-.69,1.47-1.11,2.39-1.14,5.86-.24,15.85,1.35,14.35,9.89-.05.28.15.56.42.61.16.03.33-.02.45-.14,10.31-9.78,19.88,17.98,7.44,18.68-.17,0-.3.15-.29.32,0,.08.04.15.09.2,5.28,5.23,6.46,11.38,3.54,18.45-.06.15.02.33.17.38.11.04.23.02.31-.06,3.79-3.78,6.36-8.04,7.71-12.78.85-2.99,1.84-5.26,4.5-5.83,6.73-1.44,14.93-2.43,24.57-2.95,12.09-.65,22.72-.56,34.18,1.39.2.03.38-.1.42-.3ZM214.2,397.51s0-.04,0-.05c-1.06-4.84-2.35-9.08-3.87-12.72-3.22-7.71-6.42-12.7-13.7-15.91-5.11-2.26-10.23-4.52-15.36-6.79-19.11-8.41-33.22-22.13-42.31-41.14-.04-.1-.15-.15-.25-.1-.07.03-.11.09-.12.16l-2.99,22.71c-.11.91,0,1.83.34,2.68.87,2.16,2.07,4.41,3.59,6.75,10.67,16.37,25.92,27.77,43.99,36.09,9.96,4.58,20.12,7.41,30.49,8.49.1.01.18-.06.19-.16ZM209.09,86.61c.36-3.38-.72-6.44-3.24-9.19-.26-.29-.72-.32-1.02-.05-.08.07-.14.16-.18.26-1.14,2.84-5.94,1.34-7.95.27-1.03-.55-1.66-1.64-1.62-2.81l.1-3.2c.03-.79-.48-1.49-1.24-1.72l-6.48-1.93c-.25-.08-.52.05-.63.29-.68,1.55-1.96,3.28-3.83,5.21-.38.39-.42,1.01-.07,1.44,2.09,2.63,4.1,5.07.62,7.97-1.53,1.28-2.84,2.13-3.95,2.56-.2.08-.42.09-.62.03l-1.27-.38c-.44-.13-.89.11-1.02.55-.01.05-.03.11-.03.16-.44,4.69,1.26,7.99,5.08,9.9.13.07.29.01.36-.11,1.1-2.22,2.87-2.66,5.31-1.34,1.75.96,2.78,1.98,3.06,3.05.06.24.07.49.02.74-.91,4.75-2,10.05,2.27,13.23,1.51,1.13,3.03,1.87,4.58,2.24,2.46.59,3.96,1.25,4.51,1.97.1.12.27.15.39.06.05-.03.09-.09.1-.15.67-2.45,3.74-3.85,4.86-6.45,1.71-3.97,1.38-7.55-.99-10.73-1.01-1.35-2.93-2.57-4-4.12-.22-.33-.31-.72-.26-1.11.34-2.42,1.23-4.4,2.66-5.95.63-.67,1.58-.94,2.46-.68l1.39.42c.26.08.54-.07.62-.34,0-.03.01-.06.02-.09ZM201.44,167.3c.23-.08.35-.33.26-.56-2.93-8.32-5.61-17.26-8.02-26.83-1.33-5.26-1.39-9.4,1.01-13.85.14-.25.05-.57-.21-.71-.07-.04-.15-.06-.22-.06-8.46-.39-15.72-2.94-21.78-7.65-.21-.17-.5-.2-.73-.08-17.21,8.28-33.14,18.28-47.78,29.99-1.25,1-3.39,3.12-6.43,6.37-1.27,1.37-1.26,2.29-.89,4.02.81,3.79,1.85,7.62,3.13,11.5.1.3.42.47.72.37.02,0,.03-.01.05-.02,4.98-2.09,12.49-2.46,16.58,1.66,3.5,3.54,4.31,9.11,3.04,13.82-.08.3.04.63.3.81,2.99,1.99,4.27,5.22,3.84,9.69-.02.21.14.4.35.42.09,0,.18-.01.25-.07,17.35-12.01,36.9-21.43,56.53-28.83ZM118.67,200.44c4.95-4.44,14.68-13.73,13.67-20.76-.26-1.83-1.39-2.84-3.38-3.02-1.58-.14-3.39.5-5.43,1.93-.27.19-.43.5-.43.83,0,9.29-6.64,15.35-13.46,21.24-11.47,9.91-21.59,18.42-30.37,25.52-.04.03-.04.09,0,.13,0,0,.02.01.03.02l5.6,2.6c.12.06.27.04.39-.05,11.43-9.24,22.56-18.72,33.39-28.44ZM128.97,278.13c.02-.07.03-.14.03-.21-.1-1.5-.62-8.13-1.56-19.91-.39-4.8-.4-9.52-.54-14.99,0-.28-.07-.55-.19-.81-2.26-5.04-6.07-6.11-11.09-7.68-.51-.16-1.06-.02-1.44.36l-.69.69c-.21.2-.21.54,0,.74.07.07.15.11.23.14,8.56,2.45,10.32,11.9,6.64,19.08-.68,1.32-2.29,3.25-4.83,5.8-.2.2-.27.51-.18.79,2.55,7.07,5.77,13.64,12.97,16.3.26.09.56-.04.65-.31ZM126.83,223.8c.02-.21-.14-.39-.35-.41-.11,0-.22.03-.3.11l-4.53,4.53c-.1.09-.1.24,0,.34.01.02.03.03.06.05l4.39,2.54c.08.05.17.01.22-.07.01-.02.02-.05.02-.07l.49-7.02ZM114.51,182.99c1.43-3.34.82-7.06-3.79-6.68-4.48.37-9.98,3.65-13.65,6.21-.28.2-.41.54-.36.87,2.02,10.94-6.68,18.44-14.6,24.18-6.36,4.61-12.24,8.83-17.66,12.67-.03.02-.04.06-.01.09,0,0,.02.02.03.02l7.14,2.25c.15.05.31.01.43-.09,9.3-7.72,18.74-15.6,28.34-23.65,5.6-4.69,11.55-9.84,14.13-15.87Z"></path>
    <path fill="#262626" d="M298.37,218.93c3.91,3.72.73,9.68-4.53,7.72-.22-.09-.42-.21-.6-.36-5.54-4.57-11.1-7.58-18.65-8.64-7.54-1.06-13.71.29-20.3,3.17-.22.09-.45.15-.69.18-5.58.43-7-6.18-2.21-8.67,7.47-3.9,16.21-4.97,24.49-3.81,8.27,1.17,16.38,4.61,22.49,10.41Z"></path>
    <path fill="#262626" d="M276.25,281.53c4.82,4.08,8.78,9.16,8.16,15.79-.26,2.83-3.59,3.79-5.62,2.41-1.55-1.05-1.95-3.38-2.68-5.5-.09-.27-.39-.42-.66-.33-.04.01-.09.04-.13.06-10.62,7.19-22.41,11.56-35.38,13.12-15.67,1.88-32.75.39-47.38-6.25-3.89-1.76-8.15-4.04-12.79-6.85-.22-.13-.49-.06-.62.16-.01.02-.03.05-.03.07-.31.83-.76,2.02-1.35,3.58-1.21,3.16-5.75,3.39-6.98.07-.48-1.3.07-4.24.62-5.62,2.13-5.36,5.78-9.57,10.93-12.64,1.04-.62,2.13-.92,3.27-.92.29,0,.57.08.82.21,3.94,2.06-.37,6.38-2.14,8.05-.26.24-.27.64-.03.9.03.04.07.07.11.1,7.54,5.09,16.01,8.72,25.44,10.87,17.7,4.04,34.83,2.37,51.39-4.99,3.99-1.78,7.17-3.78,9.54-6.01.21-.2.22-.53.02-.75,0-.01-.02-.02-.03-.03-1.64-1.54-5.2-4.16-3.41-6.88,2.21-3.32,6.47-.72,8.92,1.36Z"></path>
    <path fill="#262626" d="M274.08,226.75c6.62,1.32,10.98,7.45,9.73,13.68-1.08,5.43-6.06,9.14-11.69,9.14-.84,0-1.69-.08-2.55-.25-6.62-1.32-10.98-7.45-9.73-13.68,1.25-6.23,7.62-10.21,14.24-8.89ZM280.48,236.01c1.29-1.91.65-4.59-1.41-5.98h0c-2.07-1.4-4.79-.98-6.08.93-1.29,1.91-.66,4.59,1.41,5.98s4.79.98,6.08-.93Z"></path>
    <path fill="#262626" d="M256.5,335.58c2.78-3.91,7.01-1.34,5.14,2.78-3.15,6.89-8.35,11.63-15.6,14.24-13.41,4.8-28.78,4.14-41.48-2.75-5.12-2.77-8.99-7.1-11-12.32-.41-1.06-.28-2.16.37-3.3.14-.25.35-.45.6-.59,2-1.08,3.75.02,5,1.85,2.86,4.17,6.08,7.1,10.79,9.21,9.51,4.24,19.42,5.03,29.74,2.37,6.83-1.76,12.42-5.88,16.44-11.51Z"></path>
    <path fill="#262626" d="M256.72,267.52c1.6,6.73-3.03,12.32-9.73,12.79-.68.05-2.67-.11-5.97-.49-.23-.03-.46.04-.64.19-8.35,6.8-16.73,6.81-25.13.04-.18-.15-.42-.2-.65-.13-2.9.83-5.82.85-8.76.05-6.42-1.75-8.94-8.18-6.53-14.18,1.24-3.07,3.21-5.39,5.91-6.93,2.84-1.62,6.18,1.76,3.38,4.31-1.96,1.76-3.22,4.51-3,7.15.22,2.82,3.63,3.37,5.81,2.9,1.84-.39,4.72-2.06,6.98-.38,1.43,1.06,2.96,2.13,4.6,3.21,5.41,3.56,9.53.5,13.78-2.8,1.72-1.34,3.27-1.51,5.46-.66,2.04.8,5.04,1.59,6.64-.28,2.42-2.82-.49-6.84-2.74-9.04-.72-.7-.93-1.77-.51-2.67.91-2,2.55-2.59,4.93-1.78,3.03,1.03,5.51,5.88,6.18,8.7Z"></path>
    <path fill="#262626" d="M242.46,222.21c1.31.79,1.8,2.45,1.14,3.83-1.51,3.11-2.37,5.62-2.57,7.53-.54,5.11-.28,10.57.79,16.37.23,1.25-.59,2.45-1.83,2.68-.1.02-.2.03-.31.03h-.13c-1.48.09-2.84-.84-3.31-2.25-2.89-8.59-2.99-19.81,2.12-27.41.88-1.3,2.62-1.69,3.96-.88l.14.09Z"></path>
    <path fill="#262626" d="M219.5,145.59c3.49.93,5.54,4.61,4.58,8.23-.96,3.61-4.57,5.79-8.07,4.86-3.49-.93-5.54-4.61-4.58-8.23.96-3.61,4.57-5.79,8.07-4.86Z"></path>
    <path fill="#262626" d="M216.92,130.52c2.29,2.97,1.9,7.12-.87,9.25s-6.88,1.45-9.17-1.52c-2.29-2.97-1.9-7.12.87-9.25s6.88-1.46,9.17,1.52Z"></path>
    <path fill="#262626" d="M206.7,82.23c.35,1.34-.34,2.68-1.54,3s-2.46-.51-2.82-1.84c-.36-1.34.34-2.68,1.54-3,1.2-.32,2.46.51,2.82,1.84Z"></path>
    <path fill="#262626" d="M204.56,104.27c.02,8.56-11.88,6.59-11.89.03-.01-6.55,11.87-8.58,11.89-.03ZM201.3,104.88c.07-.19.09-.38.09-.58,0-.93-.7-1.85-1.78-2.21-.31-.1-.62-.15-.92-.15-.97,0-1.83.51-2.11,1.35-.37,1.1.38,2.35,1.69,2.79.31.1.62.15.92.15.97,0,1.83-.51,2.11-1.35Z"></path>
    <path fill="#262626" d="M198.38,81.91c3.09,3.57,3.45,9.13-1.53,11.39-3.09,1.41-6.06,1.12-8.91-.86-3.41-2.37-3.36-6.71-.84-9.73,2.54-3.04,8.35-4.18,11.27-.81ZM194.01,90.13c1.96-.46,3.21-2.29,2.78-4.08-.42-1.79-2.35-2.86-4.31-2.4-1.96.46-3.21,2.29-2.79,4.07.42,1.79,2.35,2.86,4.32,2.4Z"></path>
    <path fill="#262626" d="M196.03,238.15c0,1-.14,2.01-.42,3.02-1.73,6.12-8.31,9.62-14.7,7.81-5.34-1.51-8.86-6.25-8.86-11.33,0-1,.14-2.01.42-3.02,1.73-6.12,8.31-9.62,14.7-7.81,5.34,1.51,8.86,6.25,8.86,11.33ZM193.24,234.04c0-1.02-.34-2.11-1.03-3.06-1.53-2.12-4.22-2.79-6-1.5-1.78,1.29-1.99,4.05-.45,6.17,1.53,2.12,4.22,2.79,6,1.5.98-.71,1.48-1.86,1.48-3.11Z"></path>
    <path fill="#262626" d="M183.66,88.7c.6,1.31.21,2.77-.88,3.27-1.08.5-2.45-.15-3.06-1.45-.6-1.3-.21-2.77.88-3.27,1.08-.5,2.45.15,3.06,1.45Z"></path>
    <path fill="#262626" d="M47.73,234.65c3.09,1.61,2.33,7.16,1.75,10.77-1.3,8.16-4.24,15.86-8.84,23.12-4.83,7.62-11.54,12.45-20.12,14.49-2.58.62-6.02-.46-5.68-3.59.13-1.1.97-1.89,2.54-2.36,7.97-2.39,14.02-7.2,18.17-14.45,4.47-7.79,6.93-16.14,7.39-25.06.13-2.46,2.38-4.18,4.78-2.92Z"></path>
  </g>
</svg>